<svg width="14" height="15" viewBox="0 0 14 15" fill="none" xmlns="http://www.w3.org/2000/svg">
<g id="Layer_1" clip-path="url(#clip0_2207_206)">
<path id="Vector" d="M2.98748 15C2.91864 14.9809 2.85021 14.9621 2.78178 14.9426C2.19829 14.7766 1.83833 14.3336 1.78193 13.6984C1.6513 12.2203 1.52564 10.7418 1.39584 9.26367C1.2876 8.02851 1.17605 6.79374 1.06615 5.55898C1.05993 5.49101 1.05827 5.42304 1.05371 5.34335H12.9487C12.9213 5.66953 12.8948 5.99335 12.8661 6.31718C12.7882 7.20195 12.7094 8.0871 12.6314 8.97187C12.5414 9.99296 12.4514 11.0141 12.3615 12.0352C12.3092 12.6285 12.2681 13.2227 12.2001 13.8144C12.1292 14.4312 11.7145 14.8422 11.068 14.9769C11.0489 14.9809 11.0315 14.9926 11.0128 15.0004H2.98748V15ZM4.66744 9.72617C4.66744 9.5457 4.66744 9.36523 4.66744 9.18476C4.66744 8.35038 4.66786 7.51601 4.66703 6.68203C4.66703 6.44882 4.56335 6.30312 4.36098 6.24062C4.02216 6.13593 3.73477 6.34374 3.73477 6.69726C3.73394 8.71718 3.73477 10.7371 3.73477 12.7566C3.73477 12.7906 3.73312 12.8254 3.73768 12.859C3.76214 13.0348 3.86126 13.1562 4.04124 13.2125C4.37549 13.3172 4.66661 13.1129 4.66744 12.7711C4.6691 11.7562 4.66786 10.7414 4.66786 9.72656L4.66744 9.72617ZM7.46711 9.73749C7.46711 9.40078 7.46711 9.06406 7.46711 8.72773C7.46711 8.04453 7.46794 7.36171 7.4667 6.67851C7.46628 6.44687 7.36095 6.30117 7.15691 6.23945C6.83344 6.14179 6.53527 6.33632 6.53486 6.65624C6.53278 8.70546 6.53361 10.7543 6.53403 12.8035C6.53403 12.8277 6.53403 12.8527 6.53859 12.8766C6.56969 13.0449 6.66922 13.1602 6.84381 13.2133C7.1735 13.3133 7.46545 13.1141 7.46628 12.782C7.46836 11.7672 7.46711 10.7523 7.46711 9.73749ZM9.33328 9.73281C9.33328 10.7434 9.33328 11.7535 9.33328 12.7641C9.33328 13.0062 9.43779 13.1531 9.64763 13.2144C9.98478 13.3129 10.2655 13.1098 10.266 12.7625C10.2668 10.9418 10.2664 9.12109 10.2664 7.30038C10.2664 7.08554 10.2693 6.8707 10.2651 6.65624C10.2614 6.4621 10.1627 6.31992 9.97234 6.24492C9.65468 6.12031 9.33411 6.34179 9.3337 6.6871C9.33204 7.70234 9.33328 8.71757 9.33328 9.73281Z" fill="white"/>
<path id="Vector_2" d="M8.4003 0C8.48822 0.0257813 8.57738 0.0484375 8.66364 0.0785156C9.0601 0.215625 9.34334 0.467187 9.49346 0.839062C9.60004 1.10312 9.69252 1.37227 9.78168 1.64219C9.81154 1.73281 9.85633 1.76094 9.95627 1.76055C10.806 1.75664 11.6561 1.7582 12.5059 1.75859C13.4132 1.75898 13.9988 2.31328 13.9996 3.17187C13.9996 3.4207 14.0013 3.66953 13.9996 3.91875C13.9971 4.2125 13.8064 4.39453 13.4954 4.39453C9.2098 4.39531 4.92425 4.39492 0.638283 4.39453C0.576078 4.39453 0.513457 4.39297 0.452081 4.38555C0.116171 4.34492 -0.000361025 4.22305 0.0025419 3.90352C0.00585954 3.55273 -0.0173639 3.19727 0.0328153 2.85195C0.125294 2.21875 0.705465 1.76445 1.38641 1.75977C2.26227 1.75352 3.13812 1.75508 4.01356 1.76133C4.14046 1.76211 4.19562 1.72734 4.23004 1.61445C4.30054 1.38516 4.38514 1.16016 4.46725 0.933984C4.64598 0.441406 5.00305 0.135156 5.54589 0.0246094C5.56497 0.0207031 5.58239 0.00859375 5.60022 0C6.5333 0 7.4668 0 8.39989 0L8.4003 0ZM8.84113 1.75195C8.76192 1.53555 8.69723 1.325 8.60765 1.12422C8.5355 0.962891 8.38454 0.880859 8.19793 0.880469C7.40004 0.878125 6.60173 0.877734 5.80384 0.880469C5.61059 0.88125 5.45963 0.96875 5.38665 1.13711C5.30122 1.33438 5.23735 1.53984 5.16063 1.75195H8.84113Z" fill="white"/>
</g>
<defs>
<clipPath id="clip0_2207_206">
<rect width="14" height="15" fill="white"/>
</clipPath>
</defs>
</svg>
