<svg width="19" height="20" viewBox="0 0 19 20" fill="none" xmlns="http://www.w3.org/2000/svg">
<path id="vector" d="M9.5 11.6164L1.90748 19.583C1.70801 19.7923 1.45268 19.9033 1.1415 19.9158C0.829317 19.9294 0.561023 19.8185 0.336614 19.583C0.112205 19.3476 0 19.0729 0 18.7589C0 18.4449 0.112205 18.1702 0.336614 17.9348L7.92913 9.96811L0.336614 2.00147C0.137139 1.79217 0.0314173 1.52374 0.0194488 1.19617C0.00648296 0.869659 0.112205 0.588668 0.336614 0.353201C0.561023 0.117733 0.822835 0 1.12205 0C1.42126 0 1.68307 0.117733 1.90748 0.353201L9.5 8.31984L17.0925 0.353201C17.292 0.143897 17.5478 0.0324423 17.86 0.0188375C18.1712 0.00627926 18.439 0.117733 18.6634 0.353201C18.8878 0.588668 19 0.86338 19 1.17734C19 1.49129 18.8878 1.766 18.6634 2.00147L11.0709 9.96811L18.6634 17.9348C18.8629 18.1441 18.9686 18.412 18.9806 18.7385C18.9935 19.066 18.8878 19.3476 18.6634 19.583C18.439 19.8185 18.1772 19.9362 17.878 19.9362C17.5787 19.9362 17.3169 19.8185 17.0925 19.583L9.5 11.6164Z" fill="#99C2FF"/>
</svg>
