<svg width="15" height="15" viewBox="0 0 15 15" fill="none" xmlns="http://www.w3.org/2000/svg">
<path id="Vector" d="M10.3591 9.11602H9.70442L9.47238 8.89227C10.2845 7.94751 10.7735 6.72099 10.7735 5.38674C10.7735 2.4116 8.36188 0 5.38674 0C2.4116 0 0 2.4116 0 5.38674C0 8.36188 2.4116 10.7735 5.38674 10.7735C6.72099 10.7735 7.94751 10.2845 8.89227 9.47238L9.11602 9.70442V10.3591L13.2597 14.4945L14.4945 13.2597L10.3591 9.11602ZM5.38674 9.11602C3.3232 9.11602 1.65746 7.45028 1.65746 5.38674C1.65746 3.3232 3.3232 1.65746 5.38674 1.65746C7.45028 1.65746 9.11602 3.3232 9.11602 5.38674C9.11602 7.45028 7.45028 9.11602 5.38674 9.11602Z" fill="#B2BEFA"/>
</svg>
