<svg width="21" height="21" viewBox="0 0 21 21" fill="none" xmlns="http://www.w3.org/2000/svg">
<g id="icon/other/search" clip-path="url(#clip0_2564_86)">
<path id="Vector" d="M13.6033 12.4807H12.9486L12.7165 12.257C13.5287 11.3122 14.0176 10.0857 14.0176 8.75143C14.0176 5.77629 11.606 3.36469 8.63088 3.36469C5.65574 3.36469 3.24414 5.77629 3.24414 8.75143C3.24414 11.7266 5.65574 14.1382 8.63088 14.1382C9.96514 14.1382 11.1917 13.6492 12.1364 12.8371L12.3602 13.0691V13.7238L16.5038 17.8592L17.7386 16.6244L13.6033 12.4807ZM8.63088 12.4807C6.56735 12.4807 4.9016 10.815 4.9016 8.75143C4.9016 6.68789 6.56735 5.02214 8.63088 5.02214C10.6944 5.02214 12.3602 6.68789 12.3602 8.75143C12.3602 10.815 10.6944 12.4807 8.63088 12.4807Z" fill="#57298A"/>
</g>
<defs>
<clipPath id="clip0_2564_86">
<rect width="19.8895" height="19.8895" fill="white" transform="translate(0.757812 0.878479)"/>
</clipPath>
</defs>
</svg>
